<?xml version="1.0" encoding="utf-8"?>
<!-- Generator: Adobe Illustrator 17.1.0, SVG Export Plug-In . SVG Version: 6.00 Build 0)  -->
<!DOCTYPE svg PUBLIC "-//W3C//DTD SVG 1.1//EN" "http://www.w3.org/Graphics/SVG/1.1/DTD/svg11.dtd">
<svg version="1.1" xmlns="http://www.w3.org/2000/svg" xmlns:xlink="http://www.w3.org/1999/xlink" x="0px" y="0px"
	 viewBox="0 0 105.3 100.7" enable-background="new 0 0 105.3 100.7" xml:space="preserve">
<g id="background">
	<g>
		<path fill="#F04E25" d="M103.8,59.2c0,22-18,40-40,40H41.5c-22,0-40-18-40-40V41.5c0-22,18-40,40-40h22.3c22,0,40,18,40,40V59.2z"
			/>
		<path fill="none" stroke="#26101A" stroke-width="3" stroke-linecap="round" stroke-linejoin="round" stroke-miterlimit="10" d="
			M103.8,59.2c0,22-18,40-40,40H41.5c-22,0-40-18-40-40V41.5c0-22,18-40,40-40h22.3c22,0,40,18,40,40V59.2z"/>
	</g>
</g>
<g id="basket">
	<g>
		<path fill="#FFE3B3" d="M76.4,83.6H28.9c-3,0-5.5-2.2-5.9-5.2l-4.3-30.1c0,0,0,0,0,0h68c0,0,0,0,0,0l-4.3,30.1
			C81.9,81.4,79.4,83.6,76.4,83.6z"/>
		<path fill="none" stroke="#26101A" stroke-width="3" stroke-linecap="round" stroke-linejoin="round" stroke-miterlimit="10" d="
			M76.4,83.6H28.9c-3,0-5.5-2.2-5.9-5.2l-4.3-30.1c0,0,0,0,0,0h68c0,0,0,0,0,0l-4.3,30.1C81.9,81.4,79.4,83.6,76.4,83.6z"/>
	</g>
	<g>
		<path fill="#FFE3B3" d="M17.6,51.4c-1.6,0-3-1.3-3-3l0,0c0-1.6,1.4-3,3-3h70.1c1.7,0,3,1.4,3,3l0,0c0,1.7-1.3,3-3,3H17.6z"/>
		<path fill="none" stroke="#26101A" stroke-width="3" stroke-miterlimit="10" d="M17.6,51.4c-1.6,0-3-1.3-3-3l0,0c0-1.6,1.4-3,3-3
			h70.1c1.7,0,3,1.4,3,3l0,0c0,1.7-1.3,3-3,3H17.6z"/>
	</g>
	<g>
		<g>
			<path fill="#FFE3B3" d="M66.4,48.5c-1.2-1.2-1.2-3.1,0-4.2l0,0c1.2-1.2,3.1-1.2,4.2,0l18.7,18.7c1.2,1.2,1.2,3.1,0,4.2l0,0
				c-1.2,1.2-3.1,1.2-4.2,0L66.4,48.5z"/>
			<path fill="none" stroke="#26101A" stroke-width="3" stroke-miterlimit="10" d="M66.4,48.5c-1.2-1.2-1.2-3.1,0-4.2l0,0
				c1.2-1.2,3.1-1.2,4.2,0l18.7,18.7c1.2,1.2,1.2,3.1,0,4.2l0,0c-1.2,1.2-3.1,1.2-4.2,0L66.4,48.5z"/>
		</g>
		<g>
			<path fill="#FFE3B3" d="M34.6,44.2c1.2-1.2,3.1-1.2,4.2,0l0,0c1.2,1.2,1.2,3.1,0,4.2L20.1,67.2c-1.2,1.2-3.1,1.2-4.2,0h0
				c-1.2-1.2-1.2-3.1,0-4.2L34.6,44.2z"/>
			<path fill="none" stroke="#26101A" stroke-width="3" stroke-miterlimit="10" d="M34.6,44.2c1.2-1.2,3.1-1.2,4.2,0l0,0
				c1.2,1.2,1.2,3.1,0,4.2L20.1,67.2c-1.2,1.2-3.1,1.2-4.2,0h0c-1.2-1.2-1.2-3.1,0-4.2L34.6,44.2z"/>
		</g>
	</g>
	<g>
		
			<line fill="none" stroke="#26101A" stroke-width="3" stroke-linecap="round" stroke-linejoin="round" stroke-miterlimit="10" x1="28.6" y1="74.7" x2="36.4" y2="66.8"/>
		
			<line fill="none" stroke="#26101A" stroke-width="3" stroke-linecap="round" stroke-linejoin="round" stroke-miterlimit="10" x1="41.8" y1="72.2" x2="47.2" y2="66.8"/>
		
			<line fill="none" stroke="#26101A" stroke-width="3" stroke-linecap="round" stroke-linejoin="round" stroke-miterlimit="10" x1="52.6" y1="72.2" x2="58" y2="66.8"/>
		
			<line fill="none" stroke="#26101A" stroke-width="3" stroke-linecap="round" stroke-linejoin="round" stroke-miterlimit="10" x1="36.5" y1="66.8" x2="41.9" y2="61.4"/>
		
			<line fill="none" stroke="#26101A" stroke-width="3" stroke-linecap="round" stroke-linejoin="round" stroke-miterlimit="10" x1="47.2" y1="66.8" x2="52.6" y2="61.4"/>
		
			<line fill="none" stroke="#26101A" stroke-width="3" stroke-linecap="round" stroke-linejoin="round" stroke-miterlimit="10" x1="58" y1="66.8" x2="63.4" y2="61.4"/>
		
			<line fill="none" stroke="#26101A" stroke-width="3" stroke-linecap="round" stroke-linejoin="round" stroke-miterlimit="10" x1="68.8" y1="66.8" x2="76.7" y2="58.9"/>
		
			<line fill="none" stroke="#26101A" stroke-width="3" stroke-linecap="round" stroke-linejoin="round" stroke-miterlimit="10" x1="63.4" y1="72.2" x2="68.8" y2="66.8"/>
		
			<line fill="none" stroke="#26101A" stroke-width="3" stroke-linecap="round" stroke-linejoin="round" stroke-miterlimit="10" x1="28.6" y1="58.9" x2="44.3" y2="74.7"/>
		
			<line fill="none" stroke="#26101A" stroke-width="3" stroke-linecap="round" stroke-linejoin="round" stroke-miterlimit="10" x1="39.4" y1="58.9" x2="55.1" y2="74.7"/>
		
			<line fill="none" stroke="#26101A" stroke-width="3" stroke-linecap="round" stroke-linejoin="round" stroke-miterlimit="10" x1="50.2" y1="58.9" x2="65.9" y2="74.7"/>
		
			<line fill="none" stroke="#26101A" stroke-width="3" stroke-linecap="round" stroke-linejoin="round" stroke-miterlimit="10" x1="60.9" y1="58.9" x2="76.7" y2="74.7"/>
	</g>
</g>
<g id="small_x5F_rays">
</g>
<g id="big_x5F_rays">
	<g>
		
			<line fill="none" stroke="#26101A" stroke-width="3" stroke-linecap="round" stroke-linejoin="round" stroke-miterlimit="10" x1="78" y1="27.3" x2="72.6" y2="38.7"/>
		
			<line fill="none" stroke="#26101A" stroke-width="3" stroke-linecap="round" stroke-linejoin="round" stroke-miterlimit="10" x1="61.7" y1="20" x2="58.9" y2="38.7"/>
		
			<line fill="none" stroke="#26101A" stroke-width="3" stroke-linecap="round" stroke-linejoin="round" stroke-miterlimit="10" x1="46.3" y1="38.7" x2="43.6" y2="20"/>
		
			<line fill="none" stroke="#26101A" stroke-width="3" stroke-linecap="round" stroke-linejoin="round" stroke-miterlimit="10" x1="32.6" y1="38.7" x2="27.3" y2="27.3"/>
		
			<line fill="none" stroke="#26101A" stroke-width="3" stroke-linecap="round" stroke-linejoin="round" stroke-miterlimit="10" x1="80.8" y1="38.7" x2="86.9" y2="30.2"/>
		
			<line fill="none" stroke="#26101A" stroke-width="3" stroke-linecap="round" stroke-linejoin="round" stroke-miterlimit="10" x1="65.1" y1="38.7" x2="71.5" y2="16.8"/>
		
			<line fill="none" stroke="#26101A" stroke-width="3" stroke-linecap="round" stroke-linejoin="round" stroke-miterlimit="10" x1="52.6" y1="38.7" x2="52.6" y2="13.3"/>
		
			<line fill="none" stroke="#26101A" stroke-width="3" stroke-linecap="round" stroke-linejoin="round" stroke-miterlimit="10" x1="40.1" y1="38.7" x2="33.7" y2="16.8"/>
		
			<line fill="none" stroke="#26101A" stroke-width="3" stroke-linecap="round" stroke-linejoin="round" stroke-miterlimit="10" x1="18.3" y1="30.2" x2="24.5" y2="38.7"/>
	</g>
</g>
</svg>
